# xmcd
# 
# Track frame offsets:
#     150
#     14452
#     28472
#     47845
#     62804
#     79325
#     94968
#     109213
#     120873
#     137145
# 
# Disc length: 2034
# 
# Revision: 0
# Processed by: cddbd v1.5.2PL0 Copyright (c) Steve Scherf et al.
# Submitted via: fre:ac v1.0.27
# 
DISCID=8b07f00a
DTITLE=Emily Hearn - Red Balloon
DYEAR=2012
DGENRE=Pop-Folk
TTITLE0=01 Love Charade (Uh Oh)
TTITLE1=02 Not Walkin' Away
TTITLE2=03 New Orleans
TTITLE3=04 Red Balloon
TTITLE4=05 Fall
TTITLE5=06 Alone In This City
TTITLE6=07 I Can't Read Your Mind
TTITLE7=08 Heaven Help Me
TTITLE8=09 I'm Fine
TTITLE9=10 Like Ships Need the Sea
EXTD=
EXTT0=
EXTT1=
EXTT2=
EXTT3=
EXTT4=
EXTT5=
EXTT6=
EXTT7=
EXTT8=
EXTT9=
PLAYORDER=
